<svg width="32" height="32" viewBox="0 0 32 32" fill="none" xmlns="http://www.w3.org/2000/svg">
<path d="M27.7053 1.96743C27.4263 1.77176 26.9291 1.94156 26.3402 2.37792C25.7778 2.79473 24.9878 2.64822 24.5891 2.07242C24.5835 2.06432 24.5778 2.05615 24.5722 2.04805C24.0871 1.35589 23.052 1.35589 22.5669 2.04805C22.5612 2.05615 22.5556 2.06425 22.5499 2.07242C22.1512 2.64828 21.3613 2.79473 20.7988 2.37792C20.21 1.94156 19.7127 1.77176 19.4337 1.96743C18.8428 2.38187 19.4547 4.27838 20.8003 6.20335C21.3941 7.05271 22.0314 7.76536 22.6091 8.26136H24.5298C25.1075 7.76536 25.7448 7.05271 26.3386 6.20335C27.6844 4.27838 28.2962 2.38193 27.7053 1.96743Z" fill="#676A75"/>
<path d="M27.7053 1.96742C27.4263 1.77175 26.9291 1.94155 26.3402 2.37791C25.9031 2.70186 25.3292 2.68422 24.9078 2.3905C24.5803 4.31432 23.605 6.06771 22.1442 7.35908L21.9009 7.57423C22.142 7.83377 22.3803 8.06479 22.6092 8.26135H24.53C25.1077 7.76535 25.745 7.0527 26.3387 6.20334C27.6844 4.27837 28.2963 2.38193 27.7053 1.96742Z" fill="#585B67"/>
<path d="M20.4696 3.79026C20.3138 3.42716 20.2252 3.14352 20.1771 2.93354C20.4751 3.46229 21.2361 3.57681 21.8034 3.51628C22.2153 3.45937 22.5452 3.05678 22.5657 2.64085C22.574 2.47152 22.5321 2.31887 22.4593 2.18767C22.0403 2.66556 21.3217 2.76524 20.7992 2.37797C20.2103 1.94161 19.7131 1.77181 19.434 1.96748C19.0609 2.2292 19.1678 3.08224 19.6361 4.16017C19.8637 4.68401 20.6741 4.38389 20.49 3.84316C20.4839 3.82539 20.4771 3.80776 20.4696 3.79026Z" fill="#8D9096"/>
<path d="M25.7664 6.94049C33.0325 13.4131 32.0964 18.22 30.3726 20.915C29.3745 22.4754 27.6648 23.3886 25.8568 23.3886H21.2842C19.4295 23.3886 17.6945 22.4195 16.6955 20.8021C15.0184 18.0869 14.207 13.3237 21.3727 6.94049H25.7664Z" fill="#666974"/>
<path d="M25.7666 6.94049H23.7285C29.2014 12.6249 28.284 16.8762 26.7022 19.349C25.7041 20.9094 23.9945 21.8227 22.1864 21.8227H17.6138C17.5774 21.8227 17.5412 21.8216 17.5049 21.8209C18.5087 22.8174 19.8611 23.3886 21.2844 23.3886H25.8569C27.665 23.3886 29.3746 22.4755 30.3728 20.915C32.0966 18.22 33.0326 13.4131 25.7666 6.94049Z" fill="#585B67"/>
<path d="M26.5085 7.62354C31.7626 13.2047 30.8474 17.3828 29.2849 19.8257C28.2867 21.3861 26.5771 22.2993 24.7691 22.2993H20.1965C19.0249 22.2993 17.9012 21.9122 16.9805 21.2196C18.0056 22.5848 19.5951 23.3887 21.2841 23.3887H25.8567C27.6647 23.3887 29.3743 22.4756 30.3725 20.915C32.035 18.3158 32.9637 13.7517 26.5085 7.62354Z" fill="#444751"/>
<path d="M19.5674 8.68721C17.568 10.8051 16.457 12.7213 15.933 14.4178C15.839 14.7221 16.0267 15.0413 16.338 15.1063C16.6125 15.1637 16.8833 15.0004 16.9644 14.7316C17.4806 13.0233 18.6053 11.2325 20.3138 9.40088C20.3608 9.35043 20.3967 9.29589 20.4227 9.2385C20.6581 8.7173 19.9599 8.27155 19.5674 8.68721Z" fill="#8D9096"/>
<path d="M23.5695 19.728C25.9964 19.728 27.9637 17.7574 27.9637 15.3265C27.9637 12.8956 25.9964 10.925 23.5695 10.925C21.1426 10.925 19.1753 12.8956 19.1753 15.3265C19.1753 17.7574 21.1426 19.728 23.5695 19.728Z" fill="#FFCB5B"/>
<path d="M25.8382 11.556L19.9263 17.7875C20.1347 18.0964 20.3819 18.3767 20.6598 18.623L26.7086 12.2472C26.4494 11.982 26.1573 11.7491 25.8382 11.556Z" fill="#F6B545"/>
<path d="M26.7085 12.2473L20.6597 18.623C21.0373 18.9577 21.4727 19.2278 21.9491 19.4173L27.5659 13.4968C27.353 13.0309 27.0618 12.6086 26.7085 12.2473Z" fill="#FFCB5B"/>
<path d="M21.9492 19.4173C22.4508 19.6168 22.9971 19.7276 23.5696 19.7276C25.9965 19.7276 27.9638 17.757 27.9638 15.3261C27.9638 14.6732 27.8207 14.054 27.5661 13.4968L21.9492 19.4173Z" fill="#F6B545"/>
<path d="M20.025 15.3261C20.025 13.3684 21.6151 11.7757 23.5696 11.7757C23.588 11.7757 23.6062 11.7751 23.6243 11.7739C24.1588 11.7399 24.1266 10.9273 23.591 10.9246C23.5839 10.9246 23.5767 10.9246 23.5695 10.9246C21.1426 10.9246 19.1753 12.8951 19.1753 15.3261C19.1753 15.3332 19.1753 15.3404 19.1754 15.3476C19.178 15.884 19.9892 15.9163 20.0232 15.3809C20.0244 15.3628 20.025 15.3446 20.025 15.3261Z" fill="#F9DE79"/>
<path d="M27.9639 15.3261C27.9639 15.319 27.9639 15.3118 27.9638 15.3046C27.9611 14.7682 27.1499 14.7359 27.1159 15.2712C27.1148 15.2893 27.1141 15.3077 27.1141 15.3261C27.1141 17.2838 25.5241 18.8765 23.5696 18.8765C23.5513 18.8765 23.533 18.8772 23.5149 18.8783C22.9804 18.9124 23.0126 19.725 23.5482 19.7276C23.5553 19.7277 23.5625 19.7277 23.5696 19.7277C25.9965 19.7276 27.9639 17.757 27.9639 15.3261Z" fill="#F19920"/>
<path d="M23.8456 14.9262V13.7823C24.0764 13.8297 24.2961 13.9317 24.4851 14.0799C24.5325 14.1132 24.5879 14.1313 24.6459 14.132C24.826 14.132 24.974 13.9818 24.976 13.7969C24.9763 13.7156 24.9459 13.639 24.8879 13.5787C24.5956 13.3218 24.2255 13.1647 23.8423 13.1341V12.7617C23.8423 12.623 23.7325 12.5102 23.6031 12.5102C23.4638 12.4972 23.3371 12.619 23.3378 12.7617V13.1206C22.5826 13.1899 22.0585 13.6867 22.0585 14.3385C22.0585 15.1187 22.6601 15.3602 23.3378 15.5501V16.8624C23.0302 16.8117 22.7432 16.6772 22.5043 16.4711C22.45 16.4268 22.3816 16.4014 22.3081 16.3999C22.1317 16.4125 21.9953 16.5646 21.9976 16.7454C21.9972 16.8267 22.0276 16.9034 22.0849 16.9629C22.4316 17.2832 22.8764 17.4717 23.3411 17.496V17.8397C23.3395 17.9793 23.4652 18.1015 23.6001 18.0916C23.7355 18.0916 23.8456 17.9786 23.8456 17.8397V17.4879C24.8004 17.4081 25.1418 16.7733 25.1418 16.2002C25.1418 15.369 24.4782 15.1039 23.8456 14.9262ZM24.4444 16.2767C24.4444 16.5198 24.2861 16.7988 23.8457 16.8698V15.7049C24.2093 15.8165 24.4474 15.9612 24.4444 16.2767ZM23.3412 13.754V14.792C23.0099 14.6895 22.7627 14.5802 22.7627 14.2969C22.7627 14.0057 22.9883 13.7959 23.3412 13.754Z" fill="#310E31"/>
<path d="M20.2833 30.4624H1.76942C1.01735 30.4624 0.407715 29.8527 0.407715 29.1007V18.9934C0.407715 18.2413 1.01735 17.6317 1.76942 17.6317H20.2834C21.0355 17.6317 21.6451 18.2413 21.6451 18.9934V29.1007C21.645 29.8527 21.0354 30.4624 20.2833 30.4624Z" fill="#57CEAE"/>
<path d="M17.4278 18.9933H4.6204C4.6204 20.5718 3.34292 21.8514 1.76709 21.8514V26.2426C3.34292 26.2426 4.6204 27.5222 4.6204 29.1006H17.4278C17.4278 27.5222 18.7052 26.2426 20.2811 26.2426V21.8514C18.7052 21.8514 17.4278 20.5718 17.4278 18.9933Z" fill="#6DF7AE"/>
<path d="M31.8409 15.2659C31.3415 12.7103 29.6504 10.0504 26.812 7.34901H26.9002C27.1254 7.34901 27.308 7.16607 27.308 6.9405C27.308 6.71493 27.1254 6.53199 26.9002 6.53199H26.6049C27.8926 4.74305 28.9322 2.30438 27.9391 1.63279C27.6391 1.42254 27.0764 1.32409 26.0975 2.04954C25.7343 2.32978 25.1754 2.22057 24.9241 1.83956C24.3335 0.904483 22.8423 0.889436 22.2339 1.81213C21.9894 2.21185 21.4152 2.33863 21.0413 2.04954C20.0622 1.32416 19.4994 1.42261 19.1997 1.63279C18.2065 2.30424 19.2464 4.74319 20.5339 6.53199H20.2387C20.0135 6.53199 19.8309 6.71493 19.8309 6.9405C19.8309 7.16607 20.0135 7.34901 20.2387 7.34901H20.3275C16.737 10.7636 14.9995 14.0788 15.152 17.2231H1.76729C0.792783 17.2231 0 18.0173 0 18.9933V29.1007C0 30.0768 0.792783 30.8709 1.76729 30.8709H20.2858C21.2603 30.8709 22.053 30.0768 22.053 29.1007V23.7971H25.8567C27.8333 23.7971 29.6498 22.8021 30.7158 21.1354C31.8707 19.3301 32.2492 17.3553 31.8409 15.2659ZM21.1344 5.96906C20.4206 4.93567 19.4165 3.18098 19.6677 2.30213C19.6963 2.28178 19.9676 2.27027 20.5563 2.70642C21.281 3.26983 22.4072 3.0508 22.9007 2.28287C23.206 1.81689 23.963 1.82962 24.254 2.30533C24.754 3.0572 25.8658 3.26288 26.5827 2.70649C27.1713 2.27027 27.4425 2.28184 27.4713 2.3022C27.7276 3.39885 26.4331 5.42976 25.5878 6.53206H21.5512C21.4094 6.35047 21.2697 6.16263 21.1344 5.96906ZM21.2374 29.1006C21.2374 29.6262 20.8105 30.0538 20.2858 30.0538H1.76729C1.24255 30.0538 0.81566 29.6262 0.81566 29.1006V18.9933C0.81566 18.4677 1.24255 18.0401 1.76729 18.0401H20.2858C20.8105 18.0401 21.2374 18.4677 21.2374 18.9933V29.1006ZM20.2858 17.2231H20.0637C19.7577 16.6585 19.583 16.0126 19.583 15.3261C19.583 13.1244 21.3714 11.3331 23.5695 11.3331C25.7676 11.3331 27.5559 13.1244 27.5559 15.3261C27.5559 17.5279 25.7676 19.3191 23.5695 19.3191C23.0326 19.3191 22.5208 19.2114 22.053 19.0176V18.9933C22.053 18.0172 21.2603 17.2231 20.2858 17.2231ZM30.0291 20.6946C29.1137 22.1257 27.5539 22.9801 25.8567 22.9801H22.0531V19.889C22.53 20.0489 23.0397 20.1361 23.5696 20.1361C26.2175 20.1361 28.3716 17.9783 28.3716 15.3261C28.3716 12.6738 26.2175 10.5161 23.5696 10.5161C20.9217 10.5161 18.7675 12.6738 18.7675 15.3261C18.7675 15.9997 18.9076 16.6407 19.1586 17.2231H15.9675C15.8013 14.1379 17.6697 10.8195 21.5294 7.34894H25.6098C32.4033 13.4577 31.7686 17.9753 30.0291 20.6946Z" fill="#310E31"/>
<path d="M11.0266 27.1108C12.7159 27.1108 14.0854 25.739 14.0854 24.0469C14.0854 22.3548 12.7159 20.9831 11.0266 20.9831C9.33724 20.9831 7.96777 22.3548 7.96777 24.0469C7.96777 25.739 9.33724 27.1108 11.0266 27.1108Z" fill="#57CEAE"/>
<path d="M4.56934 25.3405C5.28262 25.3405 5.86084 24.7614 5.86084 24.0469C5.86084 23.3325 5.28262 22.7533 4.56934 22.7533C3.85606 22.7533 3.27783 23.3325 3.27783 24.0469C3.27783 24.7614 3.85606 25.3405 4.56934 25.3405Z" fill="#57CEAE"/>
<path d="M17.4839 25.3405C18.1972 25.3405 18.7754 24.7614 18.7754 24.0469C18.7754 23.3325 18.1972 22.7533 17.4839 22.7533C16.7706 22.7533 16.1924 23.3325 16.1924 24.0469C16.1924 24.7614 16.7706 25.3405 17.4839 25.3405Z" fill="#57CEAE"/>
<path d="M14.6239 7.44408L13.2473 6.33824C13.0408 6.16279 12.6946 6.25981 12.609 6.51703L12.0562 8.03635C11.9559 8.29617 12.1631 8.58955 12.4394 8.58485C12.6059 8.58485 12.7623 8.4819 12.8226 8.31611L12.9799 7.88377C13.9832 11.8777 8.96362 15.2201 5.67354 12.6755C5.49053 12.5442 5.23562 12.5863 5.10455 12.7699C4.97342 12.9533 5.0157 13.2085 5.19878 13.3398C9.13526 16.2526 14.7851 12.584 13.8015 7.8308L14.1135 8.08149C14.2893 8.22263 14.5458 8.19438 14.6869 8.01838C14.8278 7.84238 14.7996 7.58522 14.6239 7.44408Z" fill="#310E31"/>
<path d="M10.4653 3.63576C10.6484 3.76709 10.9033 3.72488 11.0343 3.54132C11.1654 3.3579 11.1231 3.10272 10.9401 2.97138C7.12001 0.0161486 1.27388 3.8236 2.33751 8.48056L2.02534 8.2298C1.84961 8.08866 1.593 8.11691 1.452 8.29291C1.31106 8.46891 1.33931 8.726 1.51497 8.86721L2.89152 9.97305C3.09884 10.1487 3.44396 10.0513 3.52989 9.79426L4.08253 8.27494C4.1596 8.06292 4.0506 7.82851 3.83892 7.7513C3.62766 7.67416 3.39331 7.78323 3.3161 7.99525L3.15909 8.42684C2.1562 4.43283 7.17557 1.09142 10.4653 3.63576Z" fill="#310E31"/>
</svg>
