<svg width="32" height="32" viewBox="0 0 32 32" fill="none" xmlns="http://www.w3.org/2000/svg">
<g clip-path="url(#clip0_2789_2760)">
<path d="M23.9733 31.4589H8.02624C7.27526 31.4589 6.6665 30.8502 6.6665 30.0992V1.76764C6.6665 1.01665 7.27526 0.407898 8.02624 0.407898H23.9733C24.7243 0.407898 25.333 1.01665 25.333 1.76764V30.0992C25.333 30.8502 24.7243 31.4589 23.9733 31.4589Z" fill="#7373FF"/>
<path d="M9.38599 5.6429C9.38599 3.76551 10.9079 2.24355 12.7853 2.24355H25.333V1.76764C25.333 1.01665 24.7243 0.407898 23.9733 0.407898H8.02624C7.27526 0.407898 6.6665 1.01665 6.6665 1.76764V30.0992C6.6665 30.8502 7.27526 31.4589 8.02624 31.4589H9.38599V5.6429Z" fill="#8888FF"/>
<path d="M24.829 19.4397C24.5508 19.4397 24.3252 19.2141 24.3252 18.9358V5.52796C24.3252 5.24969 24.5508 5.02411 24.829 5.02411C25.1073 5.02411 25.3329 5.24969 25.3329 5.52796V18.9358C25.3329 19.2141 25.1073 19.4397 24.829 19.4397Z" fill="#C5C5FF"/>
<path d="M18.8254 30.4226H13.0787C12.7925 30.4226 12.5605 30.6546 12.5605 30.9407C12.5605 31.2269 12.7925 31.4589 13.0787 31.4589H18.8254C19.1116 31.4589 19.3435 31.2269 19.3435 30.9407C19.3435 30.6546 19.1116 30.4226 18.8254 30.4226Z" fill="white"/>
<path d="M15.9997 3.51627C14.8845 3.51627 13.9805 2.61224 13.9805 1.49705V0.407898H18.0189V1.49705C18.0189 2.61224 17.1149 3.51627 15.9997 3.51627Z" fill="#D7DADD"/>
<path d="M18.0188 1.49705V0.407898H15.4346L15.6648 0.619882C16.0295 0.955534 16.2319 1.43192 16.2206 1.92734C16.2097 2.40012 16.3937 2.85665 16.7292 3.18986L16.863 3.32257C17.5462 2.99888 18.0188 2.30324 18.0188 1.49705Z" fill="#A9B1B8"/>
<path d="M15.9998 2.37003C16.2627 2.37003 16.4757 2.15696 16.4757 1.89412C16.4757 1.63128 16.2627 1.41821 15.9998 1.41821C15.737 1.41821 15.5239 1.63128 15.5239 1.89412C15.5239 2.15696 15.737 2.37003 15.9998 2.37003Z" fill="#310E31"/>
<path d="M10.626 6.48981H14.0253V9.88916H10.626V6.48981Z" fill="white"/>
<path d="M13.2775 7.44175H14.0253V6.48993H10.626V9.88928H11.9177V8.80149C11.9177 8.0505 12.5265 7.44175 13.2775 7.44175Z" fill="#D7DADD"/>
<path d="M14.0255 10.2971H10.6262C10.4009 10.2971 10.2183 10.1144 10.2183 9.88918V6.48983C10.2183 6.26459 10.4009 6.08191 10.6262 6.08191H14.0255C14.2508 6.08191 14.4335 6.26459 14.4335 6.48983V9.88918C14.4335 10.1145 14.2508 10.2971 14.0255 10.2971ZM11.0341 9.48126H13.6176V6.89775H11.0341V9.48126Z" fill="#310E31"/>
<path d="M17.9741 6.48981H21.3735V9.88916H17.9741V6.48981Z" fill="white"/>
<path d="M20.6256 7.44175H21.3735V6.48993H17.9741V9.88928H19.2659V8.80149C19.2659 8.0505 19.8746 7.44175 20.6256 7.44175Z" fill="#D7DADD"/>
<path d="M21.3732 10.2971H17.9738C17.7486 10.2971 17.5659 10.1144 17.5659 9.88918V6.48983C17.5659 6.26459 17.7486 6.08191 17.9738 6.08191H21.3732C21.5984 6.08191 21.7811 6.26459 21.7811 6.48983V9.88918C21.7811 10.1145 21.5985 10.2971 21.3732 10.2971ZM18.3818 9.48126H20.9653V6.89775H18.3818V9.48126Z" fill="#310E31"/>
<path d="M10.626 13.8324H14.0253V17.2317H10.626V13.8324Z" fill="white"/>
<path d="M13.2775 14.7842H14.0253V13.8324H10.626V17.2317H11.9177V16.144C11.9177 15.393 12.5265 14.7842 13.2775 14.7842Z" fill="#D7DADD"/>
<path d="M14.0255 17.6397H10.6262C10.4009 17.6397 10.2183 17.457 10.2183 17.2318V13.8324C10.2183 13.6072 10.4009 13.4245 10.6262 13.4245H14.0255C14.2508 13.4245 14.4335 13.6072 14.4335 13.8324V17.2318C14.4335 17.4571 14.2508 17.6397 14.0255 17.6397ZM11.0341 16.8239H13.6176V14.2403H11.0341V16.8239Z" fill="#310E31"/>
<path d="M17.9741 13.8324H21.3735V17.2317H17.9741V13.8324Z" fill="white"/>
<path d="M20.6256 14.7842H21.3735V13.8324H17.9741V17.2317H19.2659V16.144C19.2659 15.393 19.8746 14.7842 20.6256 14.7842Z" fill="#D7DADD"/>
<path d="M15.9996 17.6439C15.7743 17.6439 15.5917 17.4612 15.5917 17.2359V12.2729H10.7619C10.5367 12.2729 10.354 12.0902 10.354 11.865C10.354 11.6397 10.5367 11.457 10.7619 11.457H15.9996C16.2248 11.457 16.4075 11.6397 16.4075 11.865V17.2359C16.4075 17.4612 16.2248 17.6439 15.9996 17.6439Z" fill="#310E31"/>
<path d="M15.9997 10.2971C15.7745 10.2971 15.5918 10.1144 15.5918 9.88918V6.48983C15.5918 6.26459 15.7745 6.08191 15.9997 6.08191C16.225 6.08191 16.4076 6.26459 16.4076 6.48983V9.88918C16.4076 10.1145 16.225 10.2971 15.9997 10.2971Z" fill="#310E31"/>
<path d="M21.2372 12.2729H17.9738C17.7486 12.2729 17.5659 12.0902 17.5659 11.865C17.5659 11.6397 17.7486 11.457 17.9738 11.457H21.2372C21.4625 11.457 21.6451 11.6397 21.6451 11.865C21.6451 12.0902 21.4625 12.2729 21.2372 12.2729Z" fill="#310E31"/>
<path d="M20.3227 14.3702V22.5834L19.1671 20.7653C18.8032 20.1038 17.983 19.8627 17.3274 20.2244C16.6933 20.5743 16.4379 21.3655 16.7449 22.0287L18.2076 24.7865L19.1319 27.2113C20.1347 29.8421 22.6578 31.5806 25.4733 31.5806C28.5853 31.5806 31.108 29.0578 31.108 25.9459V21.0351C31.108 20.2492 30.4755 19.6121 29.6951 19.6121C28.98 19.6121 28.4004 20.1959 28.4004 20.9161V23.1666V19.8504C28.4004 19.0221 27.7337 18.3506 26.9113 18.3506C26.1962 18.3506 25.6165 18.9344 25.6165 19.6546V23.0024V18.8983C25.6165 18.1783 25.0371 17.5947 24.3222 17.5947C23.6074 17.5947 23.028 18.1783 23.028 18.8983V22.9423V14.3702C23.028 13.6234 22.4228 13.0179 21.6761 13.0175C20.9288 13.017 20.3227 13.6228 20.3227 14.3702Z" fill="#FFDECF"/>
<path d="M26.6971 31.4446C23.8816 31.4446 21.3585 29.7062 20.3557 27.0753L19.4314 24.6505L17.9687 21.8927C17.6773 21.2634 17.8931 20.5195 18.4576 20.1462C18.1001 20.0096 17.6889 20.0249 17.3274 20.2243C16.6933 20.5742 16.4379 21.3654 16.7449 22.0286L18.2076 24.7865L19.1319 27.2113C20.1347 29.8421 22.6578 31.5806 25.4733 31.5806C25.8958 31.5806 26.3068 31.5326 26.7027 31.4445C26.7008 31.4444 26.6989 31.4446 26.6971 31.4446Z" fill="#FCB497"/>
<path d="M6.62413 31.5921C9.79012 31.5921 12.3567 29.0255 12.3567 25.8595C12.3567 22.6936 9.79012 20.127 6.62413 20.127C3.45814 20.127 0.891602 22.6936 0.891602 25.8595C0.891602 29.0255 3.45814 31.5921 6.62413 31.5921Z" fill="#EF5264"/>
<path d="M0.891602 25.8595H1.91141C1.91141 23.2609 4.02553 21.1468 6.62413 21.1468V20.127C3.45811 20.127 0.891602 22.6935 0.891602 25.8595Z" fill="#F27583"/>
<path d="M11.3367 25.8596C11.3367 28.4582 9.22262 30.5722 6.62402 30.5722V31.592C9.79004 31.592 12.3566 29.0255 12.3566 25.8595L11.3367 25.8596Z" fill="#EF1E64"/>
<path d="M29.6949 19.2042C29.355 19.2042 29.038 19.3048 28.7719 19.4781C28.5992 18.6038 27.8305 17.9426 26.9111 17.9426C26.5357 17.9426 26.1884 18.0653 25.9067 18.2729C25.8626 18.1605 25.8065 18.0542 25.7409 17.9548V1.76766C25.7409 0.792933 24.9479 0 23.9733 0H8.02623C7.05157 0 6.25857 0.792933 6.25857 1.76766V19.7303C3.04244 19.9201 0.483887 22.5965 0.483887 25.8595C0.483887 29.2454 3.23852 31.9999 6.62434 31.9999C7.06789 31.9999 7.50042 31.9522 7.91752 31.8625C7.95355 31.8647 24.0687 31.8641 24.1157 31.8603C24.5599 31.9452 25.0139 31.9885 25.4731 31.9885C28.805 31.9885 31.5158 29.2778 31.5158 25.9459V21.0351C31.5158 20.0255 30.699 19.2042 29.6949 19.2042ZM14.3885 0.815844H17.6111V1.49707C17.6111 2.38553 16.8883 3.10837 15.9998 3.10837C15.1114 3.10837 14.3885 2.38553 14.3885 1.49707V0.815844ZM7.03226 31.167V30.4226C7.03226 30.1974 6.84958 30.0147 6.62434 30.0147C6.3991 30.0147 6.21642 30.1974 6.21642 30.4226V31.167C3.60531 30.968 1.51593 28.8786 1.31693 26.2675H2.06125C2.28649 26.2675 2.46918 26.0849 2.46918 25.8596C2.46918 25.6344 2.28649 25.4517 2.06125 25.4517H1.31686C1.51586 22.8406 3.60524 20.7511 6.21635 20.5522V21.2965C6.21635 21.5218 6.39903 21.7045 6.62427 21.7045C6.84951 21.7045 7.03219 21.5218 7.03219 21.2965V20.5522C9.6433 20.7512 11.7327 22.8406 11.9317 25.4517H11.1874C10.9621 25.4517 10.7794 25.6344 10.7794 25.8596C10.7794 26.0849 10.9621 26.2675 11.1874 26.2675H11.9317C11.7327 28.8786 9.64337 30.968 7.03226 31.167ZM9.89995 31.051C11.6202 29.9618 12.7648 28.0419 12.7648 25.8596C12.7648 22.6251 10.251 19.967 7.07455 19.7357V1.76766C7.07455 1.2428 7.50151 0.815844 8.02637 0.815844H13.5728V1.49707C13.5728 2.83547 14.6616 3.92421 15.9999 3.92421C17.3382 3.92421 18.427 2.8354 18.427 1.49707V0.815844H23.9734C24.4983 0.815844 24.9252 1.2428 24.9252 1.76766V17.2986C24.7376 17.2269 24.5346 17.1867 24.3222 17.1867C23.9977 17.1867 23.6942 17.2785 23.4358 17.4375V14.3701C23.4358 13.3999 22.6465 12.6101 21.6763 12.6096C21.0795 12.6048 20.5081 12.9209 20.19 13.4244H17.9741C17.7489 13.4244 17.5662 13.6071 17.5662 13.8324V17.2317C17.5662 17.457 17.7489 17.6396 17.9741 17.6396H19.9146V21.1812L19.5176 20.5566C19.0726 19.7218 17.95 19.3935 17.1301 19.8671C16.3102 20.3195 15.9783 21.3442 16.3746 22.1999C16.3776 22.2066 16.381 22.2131 16.3844 22.2197L17.8353 24.9552L18.7506 27.3564C19.3428 28.9179 20.4694 30.2292 21.9234 31.0508H9.89995V31.051ZM19.9146 14.3701V16.8239H18.382V14.2404H19.9198C19.9167 14.2834 19.9146 14.3266 19.9146 14.3701ZM30.6999 25.946C30.6999 28.8281 28.3552 31.1727 25.4731 31.1727C22.8444 31.1727 20.4492 29.5224 19.5129 27.0661L18.5886 24.6413C18.5826 24.6256 18.5757 24.6103 18.5678 24.5954L17.1107 21.8481C16.9001 21.3811 17.0805 20.8265 17.5242 20.5816C17.9782 20.3192 18.5899 20.5171 18.8226 20.9842L19.9783 22.8023C20.0756 22.9554 20.2624 23.026 20.4365 22.9751C20.6107 22.9245 20.7305 22.7648 20.7305 22.5835V14.3701C20.72 13.8621 21.1679 13.4147 21.6758 13.4254C22.1964 13.4257 22.62 13.8494 22.62 14.3701V22.9423C22.62 23.1675 22.8027 23.3502 23.0279 23.3502C23.2532 23.3502 23.4358 23.1675 23.4358 22.9423V18.8982C23.4358 18.4044 23.8335 18.0026 24.3222 18.0026C24.8109 18.0026 25.2085 18.4044 25.2085 18.8982V23.0024C25.2085 23.2276 25.3911 23.4103 25.6164 23.4103C25.8418 23.4103 26.0244 23.2276 26.0244 23.0024V19.6546C26.0244 19.1604 26.4222 18.7584 26.9111 18.7584C27.5073 18.7584 27.9923 19.2483 27.9923 19.8504V23.1665C27.9923 23.3918 28.175 23.5744 28.4002 23.5744C28.6255 23.5744 28.8082 23.3918 28.8082 23.1665V20.9161C28.8082 20.4219 29.206 20.0199 29.695 20.0199C30.2492 20.0199 30.7 20.4753 30.7 21.0351V25.946H30.6999Z" fill="#310E31"/>
<path d="M8.45879 27.8538C8.36422 27.8538 8.26925 27.8212 8.19215 27.7545L6.35745 26.1682C6.26784 26.0906 6.21631 25.978 6.21631 25.8596V23.8452C6.21631 23.62 6.39899 23.4373 6.62423 23.4373C6.84947 23.4373 7.03215 23.62 7.03215 23.8452V25.673L8.72571 27.1373C9.01411 27.3691 8.82137 27.8674 8.45879 27.8538Z" fill="#310E31"/>
</g>
<defs>
<clipPath id="clip0_2789_2760">
<rect width="32" height="32" fill="white"/>
</clipPath>
</defs>
</svg>
