<svg width="32" height="32" viewBox="0 0 32 32" fill="none" xmlns="http://www.w3.org/2000/svg">
<path d="M20.4525 1.94168C20.152 1.73157 19.6165 1.91391 18.9823 2.38254C18.3765 2.83013 17.5257 2.67278 17.0963 2.05443C17.0903 2.04572 17.0842 2.037 17.0781 2.02829C16.5556 1.285 15.4408 1.285 14.9183 2.02829C14.9121 2.037 14.9061 2.04572 14.9 2.05443C14.4706 2.67278 13.6198 2.83013 13.0141 2.38254C12.3798 1.91391 11.8443 1.73157 11.5438 1.94168C10.9074 2.38676 11.5664 4.42332 13.0158 6.49059C13.6552 7.40272 14.3417 8.168 14.9639 8.70063H17.0326C17.6548 8.168 18.3412 7.40266 18.9806 6.49059C20.4299 4.42332 21.0889 2.38676 20.4525 1.94168Z" fill="#666974"/>
<path d="M20.4524 1.94169C20.1519 1.73158 19.6164 1.91391 18.9822 2.38254C18.7128 2.58162 18.3949 2.66039 18.0873 2.63275C17.981 3.52051 17.3647 4.8961 16.39 6.28627C15.8018 7.12507 15.1742 7.83915 14.5933 8.36286C14.7186 8.48378 14.8424 8.59673 14.9637 8.70056H17.0324C17.6546 8.16793 18.341 7.40259 18.9805 6.49052C20.4298 4.42332 21.0889 2.38676 20.4524 1.94169Z" fill="#585B67"/>
<path d="M12.8907 4.54261C12.4769 3.74513 12.3073 3.25465 12.2478 2.91763C12.3376 2.9693 12.3782 3.0395 12.5072 3.13475C12.993 3.49376 13.5973 3.63102 14.1877 3.52141C14.6127 3.44249 14.9492 3.09696 14.9816 2.66646C14.9974 2.45689 14.9413 2.27497 14.8439 2.12695C14.4 2.68341 13.5949 2.81169 13.014 2.38248C12.3798 1.91385 11.8442 1.73152 11.5438 1.94163C11.067 2.27504 11.3176 3.50193 12.0827 4.96563C12.3484 5.47388 13.139 5.12195 12.915 4.59409C12.9076 4.57679 12.8995 4.55964 12.8907 4.54261Z" fill="#8D9096"/>
<path d="M18.4257 7.26819C26.4542 14.8214 25.4199 20.4308 23.5152 23.5757C22.4122 25.3967 20.5232 26.4623 18.5255 26.4623H13.473C11.4237 26.4623 9.50671 25.3313 8.40278 23.4439C6.54964 20.2754 5.65309 14.717 13.5707 7.26819H18.4257Z" fill="#666974"/>
<path d="M18.4256 7.26819H16.5818C21.7522 13.4533 20.752 18.098 19.0838 20.8523C17.9809 22.6733 16.0919 23.7389 14.0941 23.7389H9.04167C8.8846 23.7389 8.72841 23.7314 8.57324 23.7183C9.69746 25.44 11.5251 26.4623 13.4729 26.4623H18.5254C20.5232 26.4623 22.4122 25.3966 23.5151 23.5757C25.4198 20.4308 26.4541 14.8215 18.4256 7.26819Z" fill="#585B67"/>
<path d="M21.0578 10.0458C25.0849 15.594 24.1116 19.7893 22.5605 22.3502C21.4576 24.1712 19.5686 25.2368 17.5708 25.2368H12.5184C10.9931 25.2368 9.54137 24.6099 8.44336 23.5112C9.55321 25.3579 11.4482 26.4623 13.4728 26.4623H18.5253C20.5231 26.4623 22.4121 25.3967 23.5149 23.5757C25.1782 20.8295 26.1771 16.2038 21.0578 10.0458Z" fill="#444751"/>
<path d="M8.60364 16.5452C9.08833 14.7084 10.1503 12.7824 11.7597 10.8207C11.7722 10.8053 11.7842 10.7896 11.7955 10.7737C12.2057 10.1941 11.3415 9.55788 10.8893 10.1053C8.97987 12.4162 7.93225 14.5105 7.45708 16.3696C7.30872 16.9499 8.06188 17.3332 8.43839 16.8669C8.51519 16.7718 8.57286 16.6637 8.60364 16.5452Z" fill="#8D9096"/>
<path d="M15.9981 21.0043C18.4454 21.0043 20.4293 19.0229 20.4293 16.5787C20.4293 14.1346 18.4454 12.1532 15.9981 12.1532C13.5508 12.1532 11.5669 14.1346 11.5669 16.5787C11.5669 19.0229 13.5508 21.0043 15.9981 21.0043Z" fill="#FFCB5B"/>
<path d="M17.5405 12.4291L12.2939 19.0067C12.5266 19.36 12.8085 19.6778 13.1299 19.9508L18.6487 13.0319C18.3129 12.7811 17.9402 12.5773 17.5405 12.4291Z" fill="#F6B545"/>
<path d="M18.6487 13.0319L13.1299 19.9507C13.5401 20.2991 14.0144 20.574 14.5331 20.7554L19.7465 14.2194C19.4558 13.7598 19.0836 13.3565 18.6487 13.0319Z" fill="#FFCB5B"/>
<path d="M19.7465 14.2194L14.5332 20.7555C14.9919 20.9159 15.4846 21.0042 15.9983 21.0042C18.4455 21.0042 20.4294 19.0228 20.4294 16.5786C20.4294 15.711 20.1785 14.9025 19.7465 14.2194Z" fill="#F6B545"/>
<path d="M12.6023 16.5787C12.6023 14.6342 14.0505 13.1884 15.9981 13.1884C16.0369 13.1884 16.0752 13.185 16.1127 13.1784C16.7263 13.072 16.6242 12.1535 16.0014 12.1531C15.9238 12.1531 15.8457 12.155 15.7672 12.159C13.5149 12.2733 11.6891 14.0957 11.573 16.345C11.5689 16.4245 11.5668 16.5036 11.5669 16.5823C11.5674 17.2038 12.4861 17.3057 12.5924 16.6933C12.5988 16.6557 12.6023 16.6175 12.6023 16.5787Z" fill="#F9DE79"/>
<path d="M20.4235 16.8107C20.4276 16.7317 20.4295 16.653 20.4294 16.5749C20.4289 15.9535 19.5102 15.8517 19.404 16.464C19.3974 16.5015 19.394 16.5398 19.394 16.5786C19.394 18.5231 17.9458 19.9689 15.9982 19.9689C15.9594 19.9689 15.9211 19.9723 15.8836 19.9788C15.2699 20.0853 15.3722 21.0037 15.9951 21.0041C16.0732 21.0042 16.1517 21.0022 16.2307 20.9982C18.4829 20.8832 20.3081 19.0601 20.4235 16.8107Z" fill="#F19920"/>
<path d="M16.2749 16.2074V15.0635C16.5061 15.1108 16.7264 15.2128 16.9158 15.3611C16.9633 15.3944 17.0189 15.4125 17.077 15.4132C17.2575 15.4132 17.4059 15.263 17.4079 15.0781C17.4083 14.9968 17.3778 14.9201 17.3196 14.8599C17.0266 14.603 16.6557 14.4459 16.2715 14.4153V14.0429C16.2715 13.9042 16.1615 13.7914 16.0318 13.7914C15.8921 13.7784 15.7651 13.9002 15.7658 14.0429V14.4018C15.0089 14.4711 14.4835 14.9679 14.4835 15.6197C14.4835 16.3999 15.0866 16.6414 15.7658 16.8313V18.1436C15.4576 18.0929 15.1698 17.9584 14.9303 17.7523C14.8759 17.708 14.8073 17.6826 14.7336 17.6811C14.5569 17.6937 14.4201 17.8458 14.4224 18.0266C14.422 18.1079 14.4525 18.1846 14.5099 18.2441C14.8575 18.5644 15.3033 18.7529 15.7691 18.7772V19.1209C15.7675 19.2605 15.8935 19.3826 16.0287 19.3728C16.1644 19.3728 16.2748 19.2598 16.2748 19.1209V18.7691C17.2319 18.6893 17.5741 18.0544 17.5741 17.4814C17.5741 16.6502 16.9089 16.3851 16.2749 16.2074ZM16.8751 17.5578C16.8751 17.8009 16.7163 18.0799 16.2749 18.1509V16.986C16.6394 17.0976 16.878 17.2424 16.8751 17.5578ZM15.7692 15.0352V16.0732C15.4371 15.9707 15.1893 15.8614 15.1893 15.578C15.1893 15.2869 15.4154 15.0771 15.7692 15.0352Z" fill="#310E31"/>
<path d="M14.1274 26.0093C14.8187 25.3361 15.7367 24.9448 16.7016 24.9124L18.4154 24.8546C19.5383 24.8546 20.4471 23.9421 20.4422 22.8197C20.4372 21.7042 19.5312 20.8025 18.4153 20.8025H15.1304L11.9112 19.088H4.30469V27.2343H8.02316L15.4804 30.3137C16.0847 30.5632 16.7587 30.5876 17.3795 30.3822L29.9961 26.2096C31.2671 25.7892 31.9194 24.3848 31.4199 23.1442C31.1624 22.5049 30.4675 22.1585 29.8012 22.3371L20.4153 24.8545H17.2524C16.097 24.8545 14.9791 25.2642 14.0987 26.0102" fill="#FFDECF"/>
<path d="M7.57693 20.3816H11.9113L15.1305 22.0962H18.4154C19.3081 22.0962 20.0659 22.6734 20.3361 23.4754C20.4055 23.2695 20.4432 23.0491 20.4422 22.8197C20.4372 21.7042 19.5312 20.8025 18.4153 20.8025H15.1304L11.9112 19.088H4.30469V27.2343H6.21352V21.7433C6.21352 20.9913 6.8239 20.3816 7.57693 20.3816Z" fill="#FCB497"/>
<path d="M3.8973 28.2669H1.49805C0.896385 28.2669 0.408691 27.7792 0.408691 27.1775V19.1435C0.408691 18.5418 0.896385 18.0541 1.49805 18.0541H3.8973C4.49897 18.0541 4.98667 18.5418 4.98667 19.1435V27.1775C4.98667 27.7791 4.49897 28.2669 3.8973 28.2669Z" fill="#7373FF"/>
<path d="M1.77174 20.4371C1.77174 19.8355 2.26012 19.3478 2.86253 19.3478H4.98631V19.1435C4.98631 18.5418 4.49794 18.0541 3.89552 18.0541H1.49899C0.896578 18.0541 0.408203 18.5418 0.408203 19.1435V27.1775C0.408203 27.7791 0.896578 28.2669 1.49899 28.2669H1.77168V20.4371H1.77174Z" fill="#8888FF"/>
<path d="M31.7988 22.9916C31.4645 22.1616 30.5604 21.7106 29.6955 21.9425L24.0575 23.4547C27.0016 17.6596 24.2763 12.6642 19.4352 7.67667H19.7478C19.9734 7.67667 20.1563 7.49379 20.1563 7.26816C20.1563 7.04253 19.9734 6.85965 19.7478 6.85965H19.2182C20.458 5.1614 21.2677 3.2047 21.0786 2.27282C21.0135 1.90333 20.8295 1.7067 20.6868 1.60681C20.3722 1.38676 19.779 1.28586 18.7397 2.05386C18.3354 2.36501 17.7121 2.24464 17.4319 1.82121C16.8063 0.833708 15.2288 0.818117 14.5841 1.79337C14.3114 2.23599 13.6718 2.37386 13.2569 2.05386C12.2176 1.28586 11.6244 1.38683 11.3098 1.60681C10.2077 2.78482 11.4742 4.85836 12.7777 6.85965H12.2488C12.0232 6.85965 11.8403 7.04253 11.8403 7.26816C11.8403 7.49379 12.0231 7.67667 12.2488 7.67667H12.5615C9.4018 10.82 7.50543 13.9134 6.92194 16.8824C6.80252 17.4898 6.73852 18.0891 6.7279 18.6794H5.32105C5.12524 18.08 4.56116 17.6456 3.89719 17.6456H1.49774C0.671864 17.6456 0 18.3175 0 19.1434V27.1775C0 28.0034 0.671864 28.6753 1.49774 28.6753H3.89719C4.56068 28.6753 5.12443 28.2415 5.32058 27.6427H7.94213L15.3245 30.6912C16.0195 30.9782 16.795 31.0058 17.5078 30.77L30.1243 26.5974C31.5888 26.1501 32.403 24.3987 31.7988 22.9916ZM4.57797 27.1775C4.57797 27.553 4.27254 27.8584 3.89719 27.8584H1.49774C1.12238 27.8584 0.816953 27.553 0.816953 27.1775V19.1435C0.816953 18.7681 1.12238 18.4626 1.49774 18.4626H3.89719C4.27254 18.4626 4.57797 18.7681 4.57797 19.1435V27.1775ZM13.3505 6.25594C12.1234 4.42193 11.5224 3.02101 11.7782 2.27636C11.8221 2.24572 12.1198 2.22938 12.7716 2.71102C13.5389 3.3052 14.7299 3.07446 15.2527 2.26315C15.5924 1.7453 16.438 1.75946 16.7611 2.28733C17.2905 3.08086 18.4667 3.29798 19.2253 2.71102C19.8772 2.22938 20.1748 2.24572 20.2188 2.27636C20.6023 2.94339 19.3868 5.39051 18.198 6.85965H13.799C13.6464 6.66493 13.496 6.4636 13.3505 6.25594ZM13.7339 7.67667H18.2623C25.9667 15.131 25.201 20.2145 22.8975 23.7659L20.3615 24.446H20.2357C20.636 23.9971 20.8534 23.4241 20.8508 22.8179C20.8457 21.6477 20.0076 20.6685 18.9017 20.4429C20.0765 19.5602 20.8381 18.1568 20.8381 16.5786C20.8381 13.9131 18.6671 11.7445 15.9984 11.7445C13.3298 11.7445 11.1587 13.9131 11.1587 16.5786C11.1587 17.3314 11.3332 18.0438 11.6422 18.6794H7.54206C7.59265 15.7485 9.1153 12.0594 13.7339 7.67667ZM17.2547 20.394H15.2326L12.9252 19.1651C12.3338 18.4657 11.9757 17.5636 11.9757 16.5787C11.9757 14.3636 13.7803 12.5616 15.9984 12.5616C18.2166 12.5616 20.0212 14.3636 20.0212 16.5787C20.0211 18.3555 18.8593 19.8657 17.2547 20.394ZM29.8679 25.8218L17.2514 29.9944C16.7237 30.1691 16.1502 30.1483 15.6364 29.9361L8.1792 26.8567C8.1297 26.8363 8.0768 26.8258 8.02328 26.8258H5.395V19.4964H11.8095L14.9387 21.1631C14.9978 21.1946 15.0638 21.211 15.1307 21.211H18.4156C19.3041 21.211 20.03 21.9335 20.0339 22.8215C20.0559 23.6938 19.2878 24.4643 18.4156 24.4461H17.2526C15.9995 24.444 14.7626 24.8376 13.8348 25.6987C13.6626 25.8446 13.6413 26.1023 13.7872 26.2745C13.947 26.4604 14.2378 26.4683 14.4126 26.302C15.041 25.742 15.8758 25.3731 16.7156 25.3207L18.4225 25.2632H20.4154C20.4511 25.2632 20.4867 25.2585 20.5213 25.2492L29.9072 22.7319C30.3733 22.6067 30.8609 22.8496 31.0411 23.2969C31.2398 23.7906 31.42 25.2025 29.8679 25.8218Z" fill="#310E31"/>
<path d="M2.69757 26.6476C2.47201 26.6476 2.28906 26.4647 2.28906 26.2391V25.0905C2.28906 24.865 2.47194 24.682 2.69757 24.682C2.92321 24.682 3.10608 24.865 3.10608 25.0905V26.2391C3.10608 26.4647 2.92321 26.6476 2.69757 26.6476Z" fill="#310E31"/>
</svg>
