<svg width="32" height="32" viewBox="0 0 32 32" fill="none" xmlns="http://www.w3.org/2000/svg">
<g clip-path="url(#clip0_2789_2891)">
<path d="M23.6583 0.408142H8.34161C7.58798 0.408142 6.97705 1.0173 6.97705 1.76869V25.1682L9.02771 26.8096L11.3944 25.1682L13.6972 26.8096L16 25.1682L18.3027 26.8096L20.6055 25.1682L22.9722 26.8096L25.0229 25.1682V1.76869C25.0229 1.0173 24.4119 0.408142 23.6583 0.408142Z" fill="#FFCB5B"/>
<path d="M24.4473 18.0882C24.1294 18.0882 23.8716 17.8312 23.8716 17.5142V6.08727C23.8716 5.77027 24.1294 5.51324 24.4473 5.51324C24.7653 5.51324 25.023 5.77027 25.023 6.08727V17.5142C25.023 17.8312 24.7653 18.0882 24.4473 18.0882Z" fill="#F6B545"/>
<path d="M9.02382 2.92518C9.02382 2.17373 9.63475 1.56464 10.3884 1.56464H25.0059C24.9069 0.91027 24.3422 0.408142 23.6584 0.408142H8.34161C7.58798 0.408142 6.97705 1.0173 6.97705 1.76869V25.1682L9.02382 26.8066V2.92518Z" fill="#F9DE79"/>
<path d="M21.3778 4.21771H20.5867C20.3611 4.21771 20.1782 4.03497 20.1782 3.80954C20.1782 3.58411 20.3612 3.40137 20.5867 3.40137H21.3778C21.6034 3.40137 21.7863 3.58411 21.7863 3.80954C21.7863 4.03497 21.6034 4.21771 21.3778 4.21771Z" fill="#310E31"/>
<path d="M18.4744 4.21771H10.6219C10.3963 4.21771 10.2134 4.03497 10.2134 3.80954C10.2134 3.58411 10.3963 3.40137 10.6219 3.40137H18.4744C18.7001 3.40137 18.8829 3.58411 18.8829 3.80954C18.8829 4.03497 18.7001 4.21771 18.4744 4.21771Z" fill="#310E31"/>
<path d="M21.3778 11.0121H20.5867C20.3611 11.0121 20.1782 10.8294 20.1782 10.604C20.1782 10.3785 20.3612 10.1958 20.5867 10.1958H21.3778C21.6034 10.1958 21.7863 10.3785 21.7863 10.604C21.7863 10.8294 21.6034 11.0121 21.3778 11.0121Z" fill="#310E31"/>
<path d="M18.4744 11.0121H10.6219C10.3963 11.0121 10.2134 10.8294 10.2134 10.604C10.2134 10.3785 10.3963 10.1958 10.6219 10.1958H18.4744C18.7001 10.1958 18.8829 10.3785 18.8829 10.604C18.883 10.8294 18.7001 11.0121 18.4744 11.0121Z" fill="#310E31"/>
<path d="M30.2297 31.5918H10.4999C9.74782 31.5918 9.13818 30.9822 9.13818 30.2301V19.45C9.13818 18.6979 9.74782 18.0883 10.4999 18.0883H30.2297C30.9818 18.0883 31.5914 18.6979 31.5914 19.45V30.2301C31.5914 30.9822 30.9818 31.5918 30.2297 31.5918Z" fill="#57CEAE"/>
<path d="M27.3803 19.2385H13.3498C13.3498 20.8801 12.0151 22.2109 10.3687 22.2109V27.4691C12.0151 27.4691 13.3498 28.7999 13.3498 30.4415H27.3803C27.3803 28.7999 28.7149 27.4691 30.3614 27.4691V22.2109C28.7149 22.2109 27.3803 20.8801 27.3803 19.2385Z" fill="#6DF7AE"/>
<path d="M20.3646 27.5153C21.8464 27.5153 23.0476 26.3175 23.0476 24.8401C23.0476 23.3626 21.8464 22.1649 20.3646 22.1649C18.8828 22.1649 17.6816 23.3626 17.6816 24.8401C17.6816 26.3175 18.8828 27.5153 20.3646 27.5153Z" fill="#57CEAE"/>
<path d="M13.8794 25.9696C14.505 25.9696 15.0122 25.4639 15.0122 24.84C15.0122 24.2162 14.505 23.7105 13.8794 23.7105C13.2538 23.7105 12.7466 24.2162 12.7466 24.84C12.7466 25.4639 13.2538 25.9696 13.8794 25.9696Z" fill="#57CEAE"/>
<path d="M26.8506 25.9696C27.4762 25.9696 27.9834 25.4639 27.9834 24.84C27.9834 24.2162 27.4762 23.7105 26.8506 23.7105C26.2249 23.7105 25.7178 24.2162 25.7178 24.84C25.7178 25.4639 26.2249 25.9696 26.8506 25.9696Z" fill="#57CEAE"/>
<path d="M18.0183 31.5918H1.77039C1.01833 31.5918 0.408691 30.9822 0.408691 30.2301V7.29279C0.408691 6.54073 1.01833 5.93109 1.77039 5.93109H18.0184C18.7704 5.93109 19.3801 6.54073 19.3801 7.29279V30.2301C19.38 30.9822 18.7704 31.5918 18.0183 31.5918Z" fill="#7373FF"/>
<path d="M2.25087 8.44813C2.25087 7.69667 2.8618 7.08758 3.61543 7.08758H19.3631C19.2641 6.43322 18.6994 5.93109 18.0156 5.93109H1.77325C1.01962 5.93109 0.408691 6.54025 0.408691 7.29164V30.2313C0.408691 30.9827 1.01962 31.5918 1.77325 31.5918H2.25087V8.44813Z" fill="#8888FF"/>
<path d="M12.0965 30.6648H5.5187C5.2627 30.6648 5.05518 30.8723 5.05518 31.1283C5.05518 31.3843 5.2627 31.5918 5.5187 31.5918H12.0966C12.3526 31.5918 12.5601 31.3843 12.5601 31.1283C12.5601 30.8723 12.3525 30.6648 12.0965 30.6648Z" fill="white"/>
<path d="M15.5076 30.6648H14.3878C14.1318 30.6648 13.9243 30.8723 13.9243 31.1283C13.9243 31.3843 14.1318 31.5918 14.3878 31.5918H15.5076C15.7636 31.5918 15.9712 31.3843 15.9712 31.1283C15.9712 30.8723 15.7636 30.6648 15.5076 30.6648Z" fill="white"/>
<path d="M18.8599 25.1954H18.8577C18.5706 25.1954 18.3379 24.9626 18.3379 24.6755V10.8412C18.3379 10.5541 18.5706 10.3214 18.8577 10.3214H18.8599C19.147 10.3214 19.3797 10.5541 19.3797 10.8412V24.6755C19.3797 24.9626 19.1469 25.1954 18.8599 25.1954Z" fill="#C5C5FF"/>
<path d="M30.2297 17.6801H25.4314V1.76871C25.4314 0.793396 24.6361 0 23.6584 0H8.34158C7.36395 0 6.56858 0.793396 6.56858 1.76871V5.52286H1.77028C0.794213 5.52293 0 6.31639 0 7.29164V30.2313C0 31.2065 0.794213 32 1.77028 32H30.2297C31.2059 32 32 31.2065 32 30.2313V19.4489C32 18.4735 31.2059 17.6801 30.2297 17.6801ZM18.9714 30.2313C18.9714 30.7564 18.5437 31.1837 18.0181 31.1837H1.77028C1.24466 31.1837 0.817021 30.7564 0.817021 30.2313V7.29164C0.817021 6.7665 1.24466 6.33927 1.77028 6.33927H18.0181C18.5437 6.33927 18.9714 6.7665 18.9714 7.29164V30.2313ZM18.0181 5.52293H7.38567V1.76871C7.38567 1.24357 7.81447 0.81634 8.34165 0.81634H23.6584C24.1856 0.81634 24.6144 1.24357 24.6144 1.76871V17.6801H19.7885V14.4178H21.378C21.6037 14.4178 21.7866 14.235 21.7866 14.0096C21.7866 13.7842 21.6036 13.6014 21.378 13.6014H19.7885V7.61491H21.378C21.6037 7.61491 21.7866 7.43217 21.7866 7.20674C21.7866 6.98131 21.6036 6.79857 21.378 6.79857H19.718C19.5037 6.06264 18.8229 5.52293 18.0181 5.52293ZM31.1829 30.2313C31.1829 30.7564 30.7553 31.1837 30.2296 31.1837H19.5086C19.6854 30.9085 19.7884 30.5818 19.7884 30.2313V18.4965H30.2297C30.7553 18.4965 31.183 18.9237 31.183 19.4489V30.2313H31.1829Z" fill="#310E31"/>
<path d="M15.3032 12.7866H4.48536C3.88369 12.7866 3.396 12.2989 3.396 11.6973V9.74164C3.396 9.13998 3.88369 8.65228 4.48536 8.65228H15.3032C15.9049 8.65228 16.3926 9.13998 16.3926 9.74164V11.6973C16.3926 12.2989 15.9048 12.7866 15.3032 12.7866Z" fill="white"/>
<path d="M5.37455 10.9651C5.37455 10.364 5.86326 9.87667 6.46616 9.87667H16.3925V9.74064C16.3925 9.13951 15.9038 8.65216 15.3009 8.65216H4.4876C3.88471 8.65216 3.396 9.13951 3.396 9.74064V11.6981C3.396 12.2992 3.88471 12.7866 4.4876 12.7866H5.37455V10.9651Z" fill="#D7DADD"/>
<path d="M15.3029 13.1948H4.48524C3.6593 13.1948 2.9873 12.5234 2.9873 11.6981V9.74066C2.9873 8.91541 3.6593 8.24402 4.48524 8.24402H15.3029C16.1289 8.24402 16.8009 8.91541 16.8009 9.74066V11.6981C16.8009 12.5234 16.129 13.1948 15.3029 13.1948ZM4.48524 9.06036C4.10982 9.06036 3.80439 9.36558 3.80439 9.74066V11.6981C3.80439 12.0732 4.10989 12.3784 4.48524 12.3784H15.3029C15.6784 12.3784 15.9838 12.0732 15.9838 11.6981V9.74066C15.9838 9.36558 15.6783 9.06036 15.3029 9.06036H4.48524Z" fill="#310E31"/>
<path d="M5.20503 18.1914H3.94062C3.56458 18.1914 3.25977 17.8866 3.25977 17.5106V16.2538C3.25977 15.8778 3.56458 15.5729 3.94062 15.5729H5.20503C5.58106 15.5729 5.88588 15.8778 5.88588 16.2538V17.5106C5.88588 17.8866 5.58106 18.1914 5.20503 18.1914Z" fill="white"/>
<path d="M4.28273 17.2056C4.28273 16.8299 4.58816 16.5253 4.96501 16.5253H5.88546V16.2531C5.88546 15.8774 5.58003 15.5728 5.20318 15.5728H3.94156C3.56478 15.5728 3.25928 15.8774 3.25928 16.2531V17.5111C3.25928 17.8868 3.56471 18.1914 3.94156 18.1914H4.28266V17.2056H4.28273Z" fill="#D7DADD"/>
<path d="M5.20484 18.5996H3.9405C3.33979 18.5996 2.85107 18.1113 2.85107 17.5111V16.2531C2.85107 15.653 3.33979 15.1647 3.9405 15.1647H5.20484C5.80556 15.1647 6.29427 15.653 6.29427 16.2531V17.5111C6.29427 18.1113 5.80556 18.5996 5.20484 18.5996ZM3.9405 15.9811C3.79031 15.9811 3.66816 16.1031 3.66816 16.2532V17.5112C3.66816 17.6612 3.79031 17.7833 3.9405 17.7833H5.20484C5.35504 17.7833 5.47718 17.6613 5.47718 17.5112V16.2532C5.47718 16.1032 5.35504 15.9811 5.20484 15.9811H3.9405Z" fill="#310E31"/>
<path d="M10.3901 18.1914H9.12568C8.74964 18.1914 8.44482 17.8866 8.44482 17.5106V16.2538C8.44482 15.8778 8.74964 15.5729 9.12568 15.5729H10.3901C10.7661 15.5729 11.0709 15.8778 11.0709 16.2538V17.5106C11.0709 17.8866 10.7661 18.1914 10.3901 18.1914Z" fill="white"/>
<path d="M9.46779 17.2056C9.46779 16.8299 9.77322 16.5253 10.1501 16.5253H11.0705V16.2531C11.0705 15.8774 10.7651 15.5728 10.3882 15.5728H9.12662C8.74983 15.5728 8.44434 15.8774 8.44434 16.2531V17.5111C8.44434 17.8868 8.74977 18.1914 9.12662 18.1914H9.46772V17.2056H9.46779Z" fill="#D7DADD"/>
<path d="M10.3899 18.5996H9.12556C8.52485 18.5996 8.03613 18.1113 8.03613 17.5111V16.2531C8.03613 15.653 8.52485 15.1647 9.12556 15.1647H10.3899C10.9906 15.1647 11.4793 15.653 11.4793 16.2531V17.5111C11.4793 18.1113 10.9905 18.5996 10.3899 18.5996ZM9.12556 15.9811C8.97537 15.9811 8.85322 16.1031 8.85322 16.2532V17.5112C8.85322 17.6612 8.97537 17.7833 9.12556 17.7833H10.3899C10.5401 17.7833 10.6622 17.6613 10.6622 17.5112V16.2532C10.6622 16.1032 10.5401 15.9811 10.3899 15.9811H9.12556Z" fill="#310E31"/>
<path d="M15.5756 18.1914H14.3112C13.9352 18.1914 13.6304 17.8866 13.6304 17.5106V16.2538C13.6304 15.8778 13.9352 15.5729 14.3112 15.5729H15.5756C15.9517 15.5729 16.2565 15.8778 16.2565 16.2538V17.5106C16.2565 17.8866 15.9517 18.1914 15.5756 18.1914Z" fill="white"/>
<path d="M14.6538 17.2056C14.6538 16.8299 14.9593 16.5253 15.3361 16.5253H16.2566V16.2531C16.2566 15.8774 15.9511 15.5728 15.5743 15.5728H14.3127C13.9359 15.5728 13.6304 15.8774 13.6304 16.2531V17.5111C13.6304 17.8868 13.9358 18.1914 14.3127 18.1914H14.6538V17.2056H14.6538Z" fill="#D7DADD"/>
<path d="M15.5754 18.5996H14.3111C13.7104 18.5996 13.2217 18.1113 13.2217 17.5111V16.2531C13.2217 15.653 13.7104 15.1647 14.3111 15.1647H15.5754C16.1762 15.1647 16.6649 15.653 16.6649 16.2531V17.5111C16.6649 18.1113 16.1762 18.5996 15.5754 18.5996ZM14.3111 15.9811C14.1609 15.9811 14.0388 16.1031 14.0388 16.2532V17.5112C14.0388 17.6612 14.1609 17.7833 14.3111 17.7833H15.5754C15.7256 17.7833 15.8478 17.6613 15.8478 17.5112V16.2532C15.8478 16.1032 15.7256 15.9811 15.5754 15.9811H14.3111Z" fill="#310E31"/>
<path d="M5.20503 23.5311H3.94062C3.56458 23.5311 3.25977 23.2263 3.25977 22.8502V21.5934C3.25977 21.2174 3.56458 20.9126 3.94062 20.9126H5.20503C5.58106 20.9126 5.88588 21.2174 5.88588 21.5934V22.8502C5.88588 23.2263 5.58106 23.5311 5.20503 23.5311Z" fill="white"/>
<path d="M4.28273 22.5452C4.28273 22.1695 4.58816 21.8649 4.96501 21.8649H5.88546V21.5928C5.88546 21.2171 5.58003 20.9125 5.20318 20.9125H3.94156C3.56478 20.9125 3.25928 21.217 3.25928 21.5928V22.8507C3.25928 23.2264 3.56471 23.531 3.94156 23.531H4.28266V22.5452H4.28273Z" fill="#D7DADD"/>
<path d="M5.20484 23.9393H3.9405C3.33979 23.9393 2.85107 23.451 2.85107 22.8508V21.5928C2.85107 20.9926 3.33979 20.5043 3.9405 20.5043H5.20484C5.80556 20.5043 6.29427 20.9926 6.29427 21.5928V22.8508C6.29427 23.451 5.80556 23.9393 5.20484 23.9393ZM3.9405 21.3207C3.79031 21.3207 3.66816 21.4427 3.66816 21.5929V22.8509C3.66816 23.0009 3.79031 23.123 3.9405 23.123H5.20484C5.35504 23.123 5.47718 23.001 5.47718 22.8509V21.5929C5.47718 21.4428 5.35504 21.3207 5.20484 21.3207H3.9405Z" fill="#310E31"/>
<path d="M10.3901 23.5311H9.12568C8.74964 23.5311 8.44482 23.2263 8.44482 22.8502V21.5934C8.44482 21.2174 8.74964 20.9126 9.12568 20.9126H10.3901C10.7661 20.9126 11.0709 21.2174 11.0709 21.5934V22.8502C11.0709 23.2263 10.7661 23.5311 10.3901 23.5311Z" fill="white"/>
<path d="M9.46779 22.5452C9.46779 22.1695 9.77322 21.8649 10.1501 21.8649H11.0705V21.5928C11.0705 21.2171 10.7651 20.9125 10.3882 20.9125H9.12662C8.74983 20.9125 8.44434 21.217 8.44434 21.5928V22.8507C8.44434 23.2264 8.74977 23.531 9.12662 23.531H9.46772V22.5452H9.46779Z" fill="#D7DADD"/>
<path d="M10.3899 23.9393H9.12556C8.52485 23.9393 8.03613 23.451 8.03613 22.8508V21.5928C8.03613 20.9926 8.52485 20.5043 9.12556 20.5043H10.3899C10.9906 20.5043 11.4793 20.9926 11.4793 21.5928V22.8508C11.4793 23.451 10.9905 23.9393 10.3899 23.9393ZM9.12556 21.3207C8.97537 21.3207 8.85322 21.4427 8.85322 21.5929V22.8509C8.85322 23.0009 8.97537 23.123 9.12556 23.123H10.3899C10.5401 23.123 10.6622 23.001 10.6622 22.8509V21.5929C10.6622 21.4428 10.5401 21.3207 10.3899 21.3207H9.12556Z" fill="#310E31"/>
<path d="M15.5756 23.5311H14.3112C13.9352 23.5311 13.6304 23.2263 13.6304 22.8502V21.5934C13.6304 21.2174 13.9352 20.9126 14.3112 20.9126H15.5756C15.9517 20.9126 16.2565 21.2174 16.2565 21.5934V22.8502C16.2565 23.2263 15.9517 23.5311 15.5756 23.5311Z" fill="white"/>
<path d="M14.6538 22.5452C14.6538 22.1695 14.9593 21.8649 15.3361 21.8649H16.2566V21.5928C16.2566 21.2171 15.9511 20.9125 15.5743 20.9125H14.3127C13.9359 20.9125 13.6304 21.217 13.6304 21.5928V22.8507C13.6304 23.2264 13.9358 23.531 14.3127 23.531H14.6538V22.5452H14.6538Z" fill="#D7DADD"/>
<path d="M15.5754 23.9393H14.3111C13.7104 23.9393 13.2217 23.451 13.2217 22.8508V21.5928C13.2217 20.9926 13.7104 20.5043 14.3111 20.5043H15.5754C16.1762 20.5043 16.6649 20.9926 16.6649 21.5928V22.8508C16.6649 23.451 16.1762 23.9393 15.5754 23.9393ZM14.3111 21.3207C14.1609 21.3207 14.0388 21.4427 14.0388 21.5929V22.8509C14.0388 23.0009 14.1609 23.123 14.3111 23.123H15.5754C15.7256 23.123 15.8478 23.001 15.8478 22.8509V21.5929C15.8478 21.4428 15.7256 21.3207 15.5754 21.3207H14.3111Z" fill="#310E31"/>
<path d="M5.20503 28.8707H3.94062C3.56458 28.8707 3.25977 28.5659 3.25977 28.1898V26.933C3.25977 26.557 3.56458 26.2522 3.94062 26.2522H5.20503C5.58106 26.2522 5.88588 26.557 5.88588 26.933V28.1898C5.88588 28.5659 5.58106 28.8707 5.20503 28.8707Z" fill="white"/>
<path d="M4.28273 27.8848C4.28273 27.5091 4.58816 27.2045 4.96501 27.2045H5.88546V26.9324C5.88546 26.5567 5.58003 26.2521 5.20318 26.2521H3.94156C3.56478 26.2521 3.25928 26.5566 3.25928 26.9324V28.1903C3.25928 28.566 3.56471 28.8706 3.94156 28.8706H4.28266V27.8848H4.28273Z" fill="#D7DADD"/>
<path d="M5.20484 29.2788H3.9405C3.33979 29.2788 2.85107 28.7905 2.85107 28.1903V26.9324C2.85107 26.3322 3.33979 25.8439 3.9405 25.8439H5.20484C5.80556 25.8439 6.29427 26.3322 6.29427 26.9324V28.1903C6.29427 28.7906 5.80556 29.2788 5.20484 29.2788ZM3.9405 26.6603C3.79031 26.6603 3.66816 26.7824 3.66816 26.9325V28.1904C3.66816 28.3405 3.79031 28.4626 3.9405 28.4626H5.20484C5.35504 28.4626 5.47718 28.3405 5.47718 28.1904V26.9325C5.47718 26.7824 5.35504 26.6603 5.20484 26.6603H3.9405Z" fill="#310E31"/>
<path d="M10.3901 28.8707H9.12568C8.74964 28.8707 8.44482 28.5659 8.44482 28.1898V26.933C8.44482 26.557 8.74964 26.2522 9.12568 26.2522H10.3901C10.7661 26.2522 11.0709 26.557 11.0709 26.933V28.1898C11.0709 28.5659 10.7661 28.8707 10.3901 28.8707Z" fill="white"/>
<path d="M9.46779 27.8848C9.46779 27.5091 9.77322 27.2045 10.1501 27.2045H11.0705V26.9324C11.0705 26.5567 10.7651 26.2521 10.3882 26.2521H9.12662C8.74983 26.2521 8.44434 26.5566 8.44434 26.9324V28.1903C8.44434 28.566 8.74977 28.8706 9.12662 28.8706H9.46772V27.8848H9.46779Z" fill="#D7DADD"/>
<path d="M10.3899 29.2788H9.12556C8.52485 29.2788 8.03613 28.7905 8.03613 28.1903V26.9324C8.03613 26.3322 8.52485 25.8439 9.12556 25.8439H10.3899C10.9906 25.8439 11.4793 26.3322 11.4793 26.9324V28.1903C11.4793 28.7906 10.9905 29.2788 10.3899 29.2788ZM9.12556 26.6603C8.97537 26.6603 8.85322 26.7824 8.85322 26.9325V28.1904C8.85322 28.3405 8.97537 28.4626 9.12556 28.4626H10.3899C10.5401 28.4626 10.6622 28.3405 10.6622 28.1904V26.9325C10.6622 26.7824 10.5401 26.6603 10.3899 26.6603H9.12556Z" fill="#310E31"/>
<path d="M15.5756 28.8707H14.3112C13.9352 28.8707 13.6304 28.5659 13.6304 28.1898V26.933C13.6304 26.557 13.9352 26.2522 14.3112 26.2522H15.5756C15.9517 26.2522 16.2565 26.557 16.2565 26.933V28.1898C16.2565 28.5659 15.9517 28.8707 15.5756 28.8707Z" fill="white"/>
<path d="M14.6538 27.8848C14.6538 27.5091 14.9593 27.2045 15.3361 27.2045H16.2566V26.9324C16.2566 26.5567 15.9511 26.2521 15.5743 26.2521H14.3127C13.9359 26.2521 13.6304 26.5566 13.6304 26.9324V28.1903C13.6304 28.566 13.9358 28.8706 14.3127 28.8706H14.6538V27.8848H14.6538Z" fill="#D7DADD"/>
<path d="M15.5754 29.2788H14.3111C13.7104 29.2788 13.2217 28.7905 13.2217 28.1903V26.9324C13.2217 26.3322 13.7104 25.8439 14.3111 25.8439H15.5754C16.1762 25.8439 16.6649 26.3322 16.6649 26.9324V28.1903C16.6649 28.7906 16.1762 29.2788 15.5754 29.2788ZM14.3111 26.6603C14.1609 26.6603 14.0388 26.7824 14.0388 26.9325V28.1904C14.0388 28.3405 14.1609 28.4626 14.3111 28.4626H15.5754C15.7256 28.4626 15.8478 28.3405 15.8478 28.1904V26.9325C15.8478 26.7824 15.7256 26.6603 15.5754 26.6603H14.3111Z" fill="#310E31"/>
</g>
<defs>
<clipPath id="clip0_2789_2891">
<rect width="32" height="32" fill="white"/>
</clipPath>
</defs>
</svg>
