<svg width="36" height="32" viewBox="0 0 36 32" fill="none" xmlns="http://www.w3.org/2000/svg">
<path d="M27.268 23.0877H1.99139C1.14531 23.0877 0.459473 22.4019 0.459473 21.5558V6.26995C0.459473 5.42388 1.14531 4.73804 1.99139 4.73804H27.268C28.1141 4.73804 28.7999 5.42388 28.7999 6.26995V21.5558C28.7999 22.4019 28.1141 23.0877 27.268 23.0877Z" fill="#BEC3C7"/>
<path d="M2.91054 8.41463C2.91054 7.14552 3.93929 6.11676 5.20841 6.11676H28.7922C28.7153 5.34268 28.0624 4.73804 27.268 4.73804H1.99139C1.14531 4.73804 0.459473 5.42388 0.459473 6.26995V21.5558C0.459473 22.4019 1.14531 23.0877 1.99139 23.0877H2.91054V8.41463Z" fill="#D7DADD"/>
<path d="M14.0475 21.9158H7.89553C7.57406 21.9158 7.31348 22.1764 7.31348 22.4979C7.31348 22.8194 7.57406 23.0799 7.89553 23.0799H14.0475C14.369 23.0799 14.6296 22.8194 14.6296 22.4979C14.6296 22.1764 14.369 21.9158 14.0475 21.9158Z" fill="white"/>
<path d="M17.6659 21.9158H16.5322C16.2108 21.9158 15.9502 22.1764 15.9502 22.4979C15.9502 22.8194 16.2108 23.0799 16.5322 23.0799H17.6659C17.9874 23.0799 18.248 22.8194 18.248 22.4979C18.2481 22.1764 17.9874 21.9158 17.6659 21.9158Z" fill="white"/>
<path d="M0.459473 8.72424H28.7999V12.1697H0.459473V8.72424Z" fill="#7373FF"/>
<path d="M17.6712 11.0161H11.2756C10.957 11.0161 10.6987 11.2743 10.6987 11.5929C10.6987 11.9115 10.957 12.1697 11.2756 12.1697H17.6712C17.9898 12.1697 18.2481 11.9115 18.2481 11.5929C18.2482 11.2743 17.9899 11.0161 17.6712 11.0161Z" fill="#C5C5FF"/>
<path d="M4.44245 10.103H28.7999V8.72424H0.459473V12.1697H2.91054V11.6349C2.91054 10.7889 3.59637 10.103 4.44245 10.103Z" fill="#8888FF"/>
<path d="M10.3093 16.4032H4.31797C4.06421 16.4032 3.8584 16.1973 3.8584 15.9436C3.8584 15.6898 4.06421 15.484 4.31797 15.484H10.3093C10.5631 15.484 10.7689 15.6898 10.7689 15.9436C10.7689 16.1973 10.5631 16.4032 10.3093 16.4032Z" fill="#310E31"/>
<path d="M12.6072 19.7734H4.31797C4.06421 19.7734 3.8584 19.5677 3.8584 19.3138C3.8584 19.06 4.06421 18.8542 4.31797 18.8542H12.6072C12.8609 18.8542 13.0667 19.06 13.0667 19.3138C13.0667 19.5677 12.8609 19.7734 12.6072 19.7734Z" fill="#310E31"/>
<path d="M25.0185 18.6451H20.2669C19.8439 18.6451 19.501 18.3022 19.501 17.8792V15.3867C19.501 14.9637 19.8439 14.6208 20.2669 14.6208H25.0185C25.4415 14.6208 25.7844 14.9637 25.7844 15.3867V17.8792C25.7844 18.3022 25.4415 18.6451 25.0185 18.6451Z" fill="#D7DADD"/>
<path d="M24.1757 19.6409H19.4242C19.0011 19.6409 18.6582 19.2979 18.6582 18.8749V16.3825C18.6582 15.9594 19.0011 15.6165 19.4242 15.6165H24.1757C24.5987 15.6165 24.9417 15.9594 24.9417 16.3825V18.8749C24.9417 19.2979 24.5987 19.6409 24.1757 19.6409Z" fill="#FFCB5B"/>
<path d="M20.1901 17.5314C20.1901 17.1084 20.533 16.7655 20.9561 16.7655H24.9417V16.3825C24.9417 15.9594 24.5987 15.6165 24.1757 15.6165H19.4242C19.0011 15.6165 18.6582 15.9594 18.6582 16.3825V18.8749C18.6582 19.2979 19.0011 19.6409 19.4242 19.6409H20.1901V17.5314Z" fill="#F9DE79"/>
<path d="M28.647 29.262C32.4543 29.262 35.5407 26.1756 35.5407 22.3683C35.5407 18.5611 32.4543 15.4747 28.647 15.4747C24.8398 15.4747 21.7534 18.5611 21.7534 22.3683C21.7534 26.1756 24.8398 29.262 28.647 29.262Z" fill="#EF5264"/>
<path d="M22.9789 22.3683C22.9789 19.1162 25.3949 16.7003 28.647 16.7003C28.7229 16.7003 28.7969 16.6869 28.8679 16.6627C29.5091 16.4432 29.3349 15.4757 28.6571 15.4747C28.6538 15.4747 28.6504 15.4747 28.647 15.4747C24.8398 15.4747 21.7534 18.5611 21.7534 22.3683V22.3785C21.7544 23.0561 22.7218 23.2304 22.9413 22.5893C22.9656 22.5182 22.9789 22.4443 22.9789 22.3683Z" fill="#F27583"/>
<path d="M35.5405 22.3683C35.5405 22.3649 35.5405 22.3616 35.5405 22.3582C35.5395 21.6805 34.5719 21.5062 34.3526 22.1474C34.3283 22.2184 34.315 22.2923 34.315 22.3682C34.315 25.6203 31.899 28.0363 28.6469 28.0363C28.571 28.0363 28.4971 28.0497 28.426 28.0739C27.7848 28.2934 27.9591 29.2609 28.6368 29.2619H28.6469C32.4541 29.2619 35.5405 26.1756 35.5405 22.3683Z" fill="#EF1E64"/>
<path d="M29.2596 15.0409V6.26993C29.2596 5.17186 28.3662 4.27844 27.2681 4.27844H1.99149C0.893336 4.27844 0 5.17186 0 6.26993V21.5558C0 22.6538 0.893336 23.5473 1.99149 23.5473H21.3886C21.9544 27.0433 24.9935 29.7215 28.6468 29.7215C32.7014 29.7215 36 26.4229 36 22.3683C36 18.5202 33.0285 15.3533 29.2596 15.0409ZM0.919149 6.26993C0.919149 5.67861 1.40017 5.19759 1.99149 5.19759H27.2681C27.8594 5.19759 28.3404 5.67861 28.3404 6.26993V8.26464H0.919149V6.26993ZM0.919149 9.18386H28.3404V11.7102H0.919149V9.18386ZM21.2987 22.6282H1.99149C1.40017 22.6282 0.919149 22.1472 0.919149 21.5558V12.6294H28.3404V15.0221C27.2381 15.0675 26.1976 15.3568 25.2715 15.8372C25.0704 15.4348 24.6553 15.157 24.1757 15.157H19.4241C18.7484 15.157 18.1986 15.7068 18.1986 16.3826V18.875C18.1986 19.5507 18.7484 20.1005 19.4241 20.1005H21.6518C21.4195 20.8152 21.2936 21.5773 21.2936 22.3684C21.2936 22.4554 21.2957 22.5419 21.2987 22.6282ZM22.0214 19.1814H19.4241C19.2552 19.1814 19.1178 19.044 19.1178 18.875V16.3826C19.1178 16.2136 19.2552 16.0762 19.4241 16.0762H24.1757C24.3222 16.0762 24.4447 16.1797 24.4747 16.3173C23.4288 17.0405 22.5788 18.0275 22.0214 19.1814ZM28.6468 28.8024C25.0991 28.8024 22.2128 25.9161 22.2128 22.3684C22.2128 18.8206 25.0991 15.9343 28.6468 15.9343C32.1945 15.9343 35.0808 18.8206 35.0808 22.3684C35.0808 25.9161 32.1945 28.8024 28.6468 28.8024Z" fill="#310E31"/>
<path d="M31.7108 22.828H25.5831C25.3293 22.828 25.1235 22.6221 25.1235 22.3684C25.1235 22.1146 25.3293 21.9088 25.5831 21.9088H31.7108C31.9645 21.9088 32.1703 22.1146 32.1703 22.3684C32.1703 22.6221 31.9645 22.828 31.7108 22.828Z" fill="#310E31"/>
</svg>
